HIERARCHY
ROOT Hips
{
	OFFSET 0.000000 0.000000 0.000000
	CHANNELS 6 Xposition Yposition Zposition Xrotation Yrotation Zrotation
	JOINT LeftUpLeg_virtual
	{
		OFFSET 0.000000 0.000000 0.000000
		CHANNELS 3 Xrotation Yrotation Zrotation
		JOINT LeftUpLeg
		{
			OFFSET 11.394100 -6.187798 -0.413800
			CHANNELS 3 Xrotation Yrotation Zrotation
			JOINT LeftLeg
			{
				OFFSET 0.430247 -32.302673 3.732800
				CHANNELS 3 Xrotation Yrotation Zrotation
				JOINT LeftFoot
				{
					OFFSET -0.430247 -48.264931 -6.423300
					CHANNELS 3 Xrotation Yrotation Zrotation
					JOINT LeftToeBase
					{
						OFFSET 4.230900 -16.068199 23.438400
						CHANNELS 3 Xrotation Yrotation Zrotation
						JOINT LeftToe_End
						{
							OFFSET 4.510700 0.695400 19.974600
							CHANNELS 3 Xrotation Yrotation Zrotation
							End Site
							{
								OFFSET 0 0 0
							}
						}
					}
				}
			}
		}
	}
	JOINT RightUpLeg_virtual
	{
		OFFSET 0.000000 0.000000 0.000000
		CHANNELS 3 Xrotation Yrotation Zrotation
		JOINT RightUpLeg
		{
			OFFSET -11.333700 -6.187798 -0.413800
			CHANNELS 3 Xrotation Yrotation Zrotation
			JOINT RightLeg
			{
				OFFSET -0.430392 -32.302628 3.733000
				CHANNELS 3 Xrotation Yrotation Zrotation
				JOINT RightFoot
				{
					OFFSET 0.430392 -48.264973 -6.423500
					CHANNELS 3 Xrotation Yrotation Zrotation
					JOINT RightToeBase
					{
						OFFSET -4.230900 -16.068199 23.438400
						CHANNELS 3 Xrotation Yrotation Zrotation
						JOINT RightToe_End
						{
							OFFSET -4.510700 0.695400 19.974600
							CHANNELS 3 Xrotation Yrotation Zrotation
							End Site
							{
								OFFSET 0 0 0
							}
						}
					}
				}
			}
		}
	}
	JOINT Spine_virtual
	{
		OFFSET 0.000000 0.000000 0.000000
		CHANNELS 3 Xrotation Yrotation Zrotation
		JOINT Spine
		{
			OFFSET -0.002400 12.777504 0.315300
			CHANNELS 3 Xrotation Yrotation Zrotation
			JOINT Spine1
			{
				OFFSET -0.002067 5.816869 0.032633
				CHANNELS 3 Xrotation Yrotation Zrotation
				JOINT Spine1_split
				{
					OFFSET -0.002067 5.816869 0.032633
					CHANNELS 3 Xrotation Yrotation Zrotation
					JOINT Spine2
					{
						OFFSET -0.002067 5.816869 0.032633
						CHANNELS 3 Xrotation Yrotation Zrotation
						JOINT Neck_virtual
						{
							OFFSET 0.000000 0.000000 0.000000
							CHANNELS 3 Xrotation Yrotation Zrotation
							JOINT Neck
							{
								OFFSET -0.003700 21.199493 -0.826900
								CHANNELS 3 Xrotation Yrotation Zrotation
								JOINT Head
								{
									OFFSET 0.000000 20.442200 4.834800
									CHANNELS 3 Xrotation Yrotation Zrotation
									JOINT HeadTop_End
									{
										OFFSET 0.000000 34.668396 4.968400
										CHANNELS 3 Xrotation Yrotation Zrotation
										End Site
										{
											OFFSET 0 0 0
										}
									}
								}
							}
						}
						JOINT LeftShoulder_virtual
						{
							OFFSET 0.000000 0.000000 0.000000
							CHANNELS 3 Xrotation Yrotation Zrotation
							JOINT LeftShoulder
							{
								OFFSET 3.288150 8.794197 -1.372250
								CHANNELS 3 Xrotation Yrotation Zrotation
								JOINT LeftShoulder_split
								{
									OFFSET 3.288150 8.794197 -1.372250
									CHANNELS 3 Xrotation Yrotation Zrotation
									JOINT LeftArm
									{
										OFFSET 11.953299 -2.279007 -0.146200
										CHANNELS 3 Xrotation Yrotation Zrotation
										JOINT LeftForeArm
										{
											OFFSET 18.448900 0.000000 0.000000
											CHANNELS 3 Xrotation Yrotation Zrotation
											JOINT LeftHand
											{
												OFFSET 29.527798 0.000000 0.000000
												CHANNELS 3 Xrotation Yrotation Zrotation
												End Site
												{
													OFFSET 0 0 0
												}
											}
										}
									}
								}
							}
						}
						JOINT RightShoulder_virtual
						{
							OFFSET 0.000000 0.000000 0.000000
							CHANNELS 3 Xrotation Yrotation Zrotation
							JOINT RightShoulder
							{
								OFFSET -3.249400 8.794197 -1.372250
								CHANNELS 3 Xrotation Yrotation Zrotation
								JOINT RightShoulder_split
								{
									OFFSET -3.249400 8.794197 -1.372250
									CHANNELS 3 Xrotation Yrotation Zrotation
									JOINT RightArm
									{
										OFFSET -11.953299 -2.279007 -0.146200
										CHANNELS 3 Xrotation Yrotation Zrotation
										JOINT RightForeArm
										{
											OFFSET -18.448900 0.000000 0.000000
											CHANNELS 3 Xrotation Yrotation Zrotation
											JOINT RightHand
											{
												OFFSET -29.527802 0.000000 0.000000
												CHANNELS 3 Xrotation Yrotation Zrotation
												End Site
												{
													OFFSET 0 0 0
												}
											}
										}
									}
								}
							}
						}
					}
				}
			}
		}
	}
}
MOTION
Frames: 8
Frame Time: 0.03333333
-5.599055 79.411713 -8.932957 0.000000 0.000000 0.000000 2.602749 1.697686 6.815117 -65.490101 11.394647 30.120475 54.066381 -23.804049 6.054282 8.302205 -3.422704 -18.042694 -0.893894 -5.246331 2.863891 0.000000 0.000000 0.000000 0.919075 4.116383 6.864675 -33.935348 -2.684067 -26.361317 57.673653 14.230000 -6.878447 -29.305914 -6.938040 34.713863 10.620003 1.889901 -15.443473 0.000000 0.000000 0.000000 0.863679 8.479437 7.704913 2.719905 2.753559 -2.528174 10.602968 4.812045 -4.253340 0.222479 -1.971441 0.438106 0.000000 0.000000 0.000000 8.720516 6.363565 -2.520608 -28.896905 27.522698 27.294293 -0.265795 22.934629 0.211503 0.000000 0.000000 0.000000 4.649621 3.395922 -3.126737 -1.422463 -10.434026 10.476128 -2.702545 -2.784060 1.079323 0.600228 36.610429 -61.623859 -51.344998 -67.552538 -45.235653 0.000000 0.000000 0.000000 4.118841 2.449197 -1.924727 1.976832 3.841488 -5.152835 -14.480961 5.133365 -4.793644 -7.265131 -19.016826 51.940006 -17.548897 46.916709 21.070309 0.000000 0.000000 0.000000 
-5.833300 79.674149 -9.074501 0.000000 0.000000 0.000000 2.352196 1.703651 6.781301 -65.399212 11.323521 30.106046 53.196676 -23.664724 5.692567 8.892184 -2.993678 -17.596152 0.352110 -5.225809 2.492214 0.000000 0.000000 0.000000 0.683283 3.937590 6.852477 -33.463071 -2.809580 -26.179908 56.746701 13.955805 -6.628007 -29.348756 -6.996602 34.175907 10.777255 1.925130 -15.544044 0.000000 0.000000 0.000000 0.291774 8.292492 7.698059 2.622301 2.721968 -2.608559 10.600745 4.658988 -4.327843 0.153910 -1.910243 0.337756 0.000000 0.000000 0.000000 8.664261 6.275768 -2.500689 -28.894268 27.521644 27.382047 -0.605042 23.754852 -0.204931 0.000000 0.000000 0.000000 4.530820 3.256267 -3.132233 -1.274065 -10.602774 10.649990 -2.778889 -1.964667 0.545134 0.163765 36.586414 -61.672305 -54.072764 -68.253110 -48.136322 0.000000 0.000000 0.000000 4.139478 2.347513 -1.821381 1.849148 3.404792 -5.524363 -14.430410 4.635892 -4.632442 -6.173274 -19.593699 52.427443 -18.273358 47.999714 21.748191 0.000000 0.000000 0.000000 
-6.042830 80.210236 -9.250088 0.000000 0.000000 0.000000 2.059331 0.602470 6.770873 -65.025409 11.766211 30.280862 51.839346 -23.226982 5.262455 9.233643 -2.170240 -17.075592 1.325326 -5.232291 1.754562 0.000000 0.000000 0.000000 0.153209 2.203517 6.935900 -33.319155 -2.732991 -25.677246 55.822870 13.663443 -6.344151 -28.617779 -6.657407 33.374497 10.069896 1.956685 -15.269446 0.000000 0.000000 0.000000 -0.429362 7.324525 7.651209 2.777441 2.722610 -2.739364 10.592048 4.430288 -4.440955 0.092707 -1.823156 0.232762 0.000000 0.000000 0.000000 8.603056 6.109022 -2.498752 -29.016894 27.530720 27.863384 -1.466436 25.816240 -0.324668 0.000000 0.000000 0.000000 4.452714 3.102475 -3.132600 -1.057060 -10.874845 10.963592 -2.524182 -0.940144 -0.299005 -0.542981 37.104733 -61.238383 -58.747564 -68.718315 -53.133005 0.000000 0.000000 0.000000 4.161112 2.195402 -1.792743 1.678470 2.763570 -6.408721 -14.841576 5.432217 -3.374020 -4.283681 -21.165330 53.551190 -19.311228 50.632739 22.493920 0.000000 0.000000 0.000000 
-6.326889 80.886559 -9.308128 0.000000 0.000000 0.000000 1.744359 -1.910208 6.719569 -64.587423 12.514237 30.681633 50.649029 -22.656559 4.985248 9.526263 -1.097854 -16.686150 1.673546 -5.241733 0.979126 0.000000 0.000000 0.000000 -0.356458 -0.465587 7.018912 -33.408634 -2.196238 -24.767936 55.025131 13.382724 -6.062273 -27.312146 -6.046386 32.259779 8.831525 1.951849 -14.550999 0.000000 0.000000 0.000000 -1.141237 5.361671 7.475663 3.212213 2.718101 -2.871476 10.614418 4.129253 -4.537236 0.090000 -1.785998 0.211195 0.000000 0.000000 0.000000 8.558983 5.867789 -2.503448 -29.278487 27.581890 28.586013 -2.875587 28.953647 0.022289 0.000000 0.000000 0.000000 4.424169 2.944324 -3.131453 -0.787775 -11.206552 11.323867 -2.079078 0.333314 -1.395171 -1.624442 37.978007 -60.197462 -64.229023 -68.843041 -58.997494 0.000000 0.000000 0.000000 4.172838 2.001826 -1.841154 1.460388 2.178041 -7.565028 -15.577278 6.930637 -1.680412 -2.183348 -23.319082 54.886113 -20.353100 53.761949 23.045178 0.000000 0.000000 0.000000 
-6.733936 81.461685 -9.204674 0.000000 0.000000 0.000000 1.460620 -5.661424 6.663730 -64.149307 13.430602 31.249099 50.097593 -22.049068 5.136164 9.775789 0.269774 -16.362323 1.929095 -5.208529 0.312060 0.000000 0.000000 0.000000 -0.547992 -3.756318 6.987865 -33.824722 -0.994559 -23.464550 54.443793 13.055176 -5.809230 -25.712841 -5.283074 30.696158 8.062168 1.830962 -13.461728 0.000000 0.000000 0.000000 -1.738184 2.571309 7.120068 3.867790 2.670547 -2.942664 10.654244 3.766871 -4.596313 0.098911 -1.792806 0.232110 0.000000 0.000000 0.000000 8.538354 5.568884 -2.514097 -29.618904 27.735622 29.217442 -4.837904 32.870487 0.987855 0.000000 0.000000 0.000000 4.455775 2.747428 -3.121780 -0.508289 -11.568953 11.569855 -1.377745 1.975415 -2.468762 -2.956924 38.912131 -58.560218 -69.359956 -68.785531 -64.528738 0.000000 0.000000 0.000000 4.152863 1.783171 -1.937440 1.208455 1.875125 -8.702098 -16.252708 7.779579 -0.368472 -0.727781 -25.474401 55.641289 -21.043782 56.399071 23.114894 0.000000 0.000000 0.000000 
-7.191668 81.878784 -8.915855 0.000000 0.000000 0.000000 1.230516 -10.382179 6.622981 -63.425444 14.514613 31.776280 50.037751 -21.298958 5.696554 9.616552 2.174427 -15.864296 2.879509 -5.110301 -0.289591 0.000000 0.000000 0.000000 -0.441024 -7.575639 6.879381 -34.709905 0.830417 -21.927549 54.154292 12.682476 -5.602612 -23.825057 -4.445199 28.854377 8.215159 1.644476 -12.287862 0.000000 0.000000 0.000000 -2.152809 -0.973119 6.659679 4.653168 2.518060 -2.905954 10.652072 3.371895 -4.637472 0.110123 -1.808552 0.296187 0.000000 0.000000 0.000000 8.498532 5.217168 -2.540751 -30.011834 28.056855 29.506950 -7.334477 37.134523 2.738132 0.000000 0.000000 0.000000 4.470535 2.500420 -3.148261 -0.233829 -11.936895 11.578892 -0.712296 3.411113 -3.319869 -4.082017 39.561921 -56.573610 -73.583581 -68.799341 -69.121842 0.000000 0.000000 0.000000 4.053967 1.524292 -2.081116 1.006051 2.060571 -9.581807 -16.528168 7.884973 0.506793 -0.614441 -27.388277 55.209939 -21.146056 57.912341 22.585289 0.000000 0.000000 0.000000 
-7.675781 82.230431 -8.520412 0.000000 0.000000 0.000000 1.253574 -15.797594 6.706574 -62.254333 15.778396 32.197932 49.843213 -20.577733 6.560450 8.911928 4.556670 -15.508850 4.611446 -4.969317 -0.595451 0.000000 0.000000 0.000000 -0.065309 -11.769738 6.822150 -36.218294 2.970619 -20.349340 54.070889 12.379570 -5.497309 -21.511210 -3.460031 27.382758 8.787436 1.511310 -11.547395 0.000000 0.000000 0.000000 -2.217890 -5.146766 6.224613 5.464618 2.256052 -2.739337 10.527898 2.952446 -4.713727 0.182416 -1.759523 0.333921 0.000000 0.000000 0.000000 8.351164 4.806913 -2.626508 -30.283512 28.557086 29.254885 -10.315269 41.546924 5.335112 0.000000 0.000000 0.000000 4.413115 2.172556 -3.254298 0.008440 -12.208544 11.335094 -0.633937 4.126991 -3.816521 -4.524389 39.858880 -54.703262 -76.225246 -68.990607 -72.026326 0.000000 0.000000 0.000000 3.815978 1.214765 -2.261342 0.916469 2.648166 -10.123162 -16.105537 7.843089 1.016733 -1.947401 -28.852806 53.320524 -20.688218 58.155291 21.600113 0.000000 0.000000 0.000000 
-8.069290 82.606926 -8.092220 0.000000 0.000000 0.000000 1.582053 -21.267543 7.085812 -60.596284 17.135831 32.406741 48.868224 -20.063618 7.426364 7.834078 7.110070 -15.495493 7.023857 -4.828864 -0.656407 0.000000 0.000000 0.000000 0.656687 -16.643672 7.049628 -38.359947 5.009805 -18.831516 54.077541 12.196526 -5.547912 -18.742010 -2.262950 26.660952 9.466022 1.518599 -11.701013 0.000000 0.000000 0.000000 -1.984425 -9.641994 6.025607 6.219637 1.861058 -2.554672 10.160320 2.511147 -4.906601 0.258999 -1.726046 0.321793 0.000000 0.000000 0.000000 8.013610 4.317039 -2.817245 -30.261805 29.234603 28.436849 -13.570384 45.866872 8.778166 0.000000 0.000000 0.000000 4.205597 1.748113 -3.492260 0.174774 -12.258102 11.017610 -1.024238 4.540486 -3.238417 -4.098682 39.968443 -53.414781 -77.179061 -69.342157 -73.102859 0.000000 0.000000 0.000000 3.383322 0.820940 -2.501053 0.987619 3.434616 -10.383155 -15.394744 7.604748 1.065563 -4.461520 -29.943799 50.139708 -19.972008 57.383582 20.611274 0.000000 0.000000 0.000000 
